<svg width="24" height="25" viewBox="0 0 24 25" fill="none" xmlns="http://www.w3.org/2000/svg">
<path d="M13.5295 8.59661C12.9571 9.0047 12.2566 9.24475 11.5 9.24475C9.567 9.24475 8 7.67775 8 5.74475C8 3.81175 9.567 2.24475 11.5 2.24475C12.753 2.24475 13.8522 2.90317 14.4705 3.89289M6 20.3319H8.61029C8.95063 20.3319 9.28888 20.3724 9.61881 20.4534L12.3769 21.1236C12.9753 21.2694 13.5988 21.2836 14.2035 21.1662L17.253 20.5729C18.0585 20.4159 18.7996 20.0302 19.3803 19.4653L21.5379 17.3665C22.154 16.7681 22.154 15.7972 21.5379 15.1978C20.9832 14.6582 20.1047 14.5974 19.4771 15.0551L16.9626 16.8896C16.6025 17.1528 16.1643 17.2946 15.7137 17.2946H13.2855L14.8311 17.2945C15.7022 17.2945 16.4079 16.6081 16.4079 15.7607V15.4539C16.4079 14.7503 15.9156 14.1367 15.2141 13.9666L12.8286 13.3865C12.4404 13.2923 12.0428 13.2448 11.6431 13.2448C10.6783 13.2448 8.93189 14.0436 8.93189 14.0436L6 15.2696M20 6.74475C20 8.67775 18.433 10.2448 16.5 10.2448C14.567 10.2448 13 8.67775 13 6.74475C13 4.81175 14.567 3.24475 16.5 3.24475C18.433 3.24475 20 4.81175 20 6.74475ZM2 14.8448L2 20.6448C2 21.2048 2 21.4848 2.10899 21.6987C2.20487 21.8869 2.35785 22.0399 2.54601 22.1358C2.75992 22.2447 3.03995 22.2448 3.6 22.2448H4.4C4.96005 22.2448 5.24008 22.2448 5.45399 22.1358C5.64215 22.0399 5.79513 21.8869 5.89101 21.6987C6 21.4848 6 21.2048 6 20.6448V14.8448C6 14.2847 6 14.0047 5.89101 13.7908C5.79513 13.6026 5.64215 13.4496 5.45399 13.3537C5.24008 13.2448 4.96005 13.2448 4.4 13.2448L3.6 13.2448C3.03995 13.2448 2.75992 13.2448 2.54601 13.3537C2.35785 13.4496 2.20487 13.6026 2.10899 13.7908C2 14.0047 2 14.2847 2 14.8448Z" stroke="#B0B0B0" stroke-width="2" stroke-linecap="round" stroke-linejoin="round"/>
</svg>
