<svg width="20" height="21" viewBox="0 0 20 21" fill="none" xmlns="http://www.w3.org/2000/svg">
<path d="M2.01677 11.1245C1.90328 10.9448 1.84654 10.8549 1.81477 10.7163C1.79091 10.6122 1.79091 10.4481 1.81477 10.344C1.84654 10.2054 1.90328 10.1155 2.01677 9.93584C2.95461 8.45086 5.74617 4.69682 10.0003 4.69682C14.2545 4.69682 17.0461 8.45086 17.9839 9.93584C18.0974 10.1155 18.1541 10.2054 18.1859 10.344C18.2098 10.4481 18.2098 10.6122 18.1859 10.7163C18.1541 10.8549 18.0974 10.9448 17.9839 11.1245C17.0461 12.6095 14.2545 16.3635 10.0003 16.3635C5.74617 16.3635 2.95461 12.6095 2.01677 11.1245Z" stroke="#4F4F4F" stroke-width="1.6" stroke-linecap="round" stroke-linejoin="round"/>
<path d="M10.0003 13.0302C11.381 13.0302 12.5003 11.9109 12.5003 10.5302C12.5003 9.14944 11.381 8.03016 10.0003 8.03016C8.61962 8.03016 7.50034 9.14944 7.50034 10.5302C7.50034 11.9109 8.61962 13.0302 10.0003 13.0302Z" stroke="#4F4F4F" stroke-width="1.6" stroke-linecap="round" stroke-linejoin="round"/>
</svg>
