<svg width="26" height="28" viewBox="0 0 26 28" fill="none" xmlns="http://www.w3.org/2000/svg">
<path d="M15.6666 26.5723H10.3333M20.9999 9.23895C20.9999 7.11722 20.1571 5.08239 18.6568 3.5821C17.1565 2.08181 15.1217 1.23895 12.9999 1.23895C10.8782 1.23895 8.84338 2.08181 7.34309 3.5821C5.8428 5.08239 4.99994 7.11722 4.99994 9.23895C4.99994 13.3592 3.96057 16.1802 2.7995 18.0462C1.82011 19.6201 1.33042 20.4071 1.34838 20.6266C1.36826 20.8697 1.41976 20.9624 1.61564 21.1077C1.79256 21.239 2.59006 21.239 4.18508 21.239H21.8148C23.4098 21.239 24.2073 21.239 24.3842 21.1077C24.5801 20.9624 24.6316 20.8697 24.6515 20.6266C24.6695 20.4071 24.1798 19.6201 23.2004 18.0462C22.0393 16.1802 20.9999 13.3592 20.9999 9.23895Z" stroke="black" stroke-width="2" stroke-linecap="round" stroke-linejoin="round"/>
</svg>
