<svg width="20" height="21" viewBox="0 0 20 21" fill="none" xmlns="http://www.w3.org/2000/svg">
<path d="M2.5 7.03015C2.5 5.63002 2.5 4.92995 2.77248 4.39518C3.01217 3.92477 3.39462 3.54232 3.86502 3.30264C4.3998 3.03015 5.09987 3.03015 6.5 3.03015H13.5C14.9001 3.03015 15.6002 3.03015 16.135 3.30264C16.6054 3.54232 16.9878 3.92477 17.2275 4.39518C17.5 4.92995 17.5 5.63002 17.5 7.03015V11.5302C17.5 12.9303 17.5 13.6303 17.2275 14.1651C16.9878 14.6355 16.6054 15.018 16.135 15.2577C15.6002 15.5302 14.9001 15.5302 13.5 15.5302H8.06979C7.54975 15.5302 7.28972 15.5302 7.04101 15.5812C6.82036 15.6265 6.60683 15.7014 6.40624 15.8039C6.18014 15.9194 5.9771 16.0818 5.57101 16.4067L3.58313 17.997C3.23639 18.2744 3.06302 18.4131 2.91712 18.4132C2.79022 18.4134 2.67019 18.3557 2.59102 18.2565C2.5 18.1425 2.5 17.9204 2.5 17.4764V7.03015Z" stroke="#4F4F4F" stroke-width="1.6" stroke-linecap="round" stroke-linejoin="round"/>
</svg>
