<svg width="25" height="25" viewBox="0 0 25 25" fill="none" xmlns="http://www.w3.org/2000/svg">
<path d="M22.5 21.2448V19.2448C22.5 17.3809 21.2252 15.8148 19.5 15.3708M16 3.53551C17.4659 4.1289 18.5 5.56606 18.5 7.24475C18.5 8.92344 17.4659 10.3606 16 10.954M17.5 21.2448C17.5 19.381 17.5 18.4491 17.1955 17.714C16.7895 16.7339 16.0108 15.9552 15.0307 15.5492C14.2956 15.2448 13.3638 15.2448 11.5 15.2448H8.5C6.63623 15.2448 5.70435 15.2448 4.96927 15.5492C3.98915 15.9552 3.21046 16.7339 2.80448 17.714C2.5 18.4491 2.5 19.381 2.5 21.2448M14 7.24475C14 9.45389 12.2091 11.2448 10 11.2448C7.79086 11.2448 6 9.45389 6 7.24475C6 5.03561 7.79086 3.24475 10 3.24475C12.2091 3.24475 14 5.03561 14 7.24475Z" stroke="#B0B0B0" stroke-width="2" stroke-linecap="round" stroke-linejoin="round"/>
</svg>
